STARTFONT 2.1
FONT -Untitled-Regular-R-Regular--8-8-75-75-c-80-iso10646-1
SIZE 8 75 75
FONTBOUNDINGBOX 6 13 0 -1
STARTPROPERTIES 9
FAMILY_NAME "Untitled"
WEIGHT_NAME "Regular"
FONT_VERSION "Version 1.0"
FOUNDRY "Made with Bits'n'Picas by Kreative Software"
FONT_ASCENT 7
FONT_DESCENT 1
POINT_SIZE 8
X_HEIGHT 5
CAP_HEIGHT 6
ENDPROPERTIES
CHARS 319
STARTCHAR U+0020
ENCODING 32
SWIDTH 333 0
DWIDTH 2 0
BBX 0 0 0 0
BITMAP
ENDCHAR
STARTCHAR U+0021
ENCODING 33
SWIDTH 333 0
DWIDTH 2 0
BBX 1 6 0 0
BITMAP
80
80
80
80
00
80
ENDCHAR
STARTCHAR U+0022
ENCODING 34
SWIDTH 666 0
DWIDTH 4 0
BBX 3 2 0 4
BITMAP
A0
A0
ENDCHAR
STARTCHAR U+0023
ENCODING 35
SWIDTH 1000 0
DWIDTH 6 0
BBX 5 6 0 0
BITMAP
50
F8
50
50
F8
50
ENDCHAR
STARTCHAR U+0024
ENCODING 36
SWIDTH 1000 0
DWIDTH 6 0
BBX 5 7 0 -1
BITMAP
20
78
A0
70
28
F0
20
ENDCHAR
STARTCHAR U+0025
ENCODING 37
SWIDTH 833 0
DWIDTH 5 0
BBX 5 12 0 0
BITMAP
78
00
00
00
00
00
00
90
20
60
40
90
ENDCHAR
STARTCHAR U+0026
ENCODING 38
SWIDTH 833 0
DWIDTH 5 0
BBX 4 6 0 0
BITMAP
40
A0
A0
50
A0
50
ENDCHAR
STARTCHAR U+0027
ENCODING 39
SWIDTH 333 0
DWIDTH 2 0
BBX 1 2 0 4
BITMAP
80
80
ENDCHAR
STARTCHAR U+0028
ENCODING 40
SWIDTH 500 0
DWIDTH 3 0
BBX 2 6 0 0
BITMAP
40
80
80
80
80
40
ENDCHAR
STARTCHAR U+0029
ENCODING 41
SWIDTH 500 0
DWIDTH 3 0
BBX 2 6 0 0
BITMAP
80
40
40
40
40
80
ENDCHAR
STARTCHAR U+002A
ENCODING 42
SWIDTH 1000 0
DWIDTH 6 0
BBX 5 5 0 0
BITMAP
20
A8
70
A8
20
ENDCHAR
STARTCHAR U+002B
ENCODING 43
SWIDTH 1000 0
DWIDTH 6 0
BBX 5 5 0 0
BITMAP
20
20
F8
20
20
ENDCHAR
STARTCHAR U+002C
ENCODING 44
SWIDTH 500 0
DWIDTH 3 0
BBX 2 2 0 -1
BITMAP
40
80
ENDCHAR
STARTCHAR U+002D
ENCODING 45
SWIDTH 833 0
DWIDTH 5 0
BBX 4 1 0 2
BITMAP
F0
ENDCHAR
STARTCHAR U+002E
ENCODING 46
SWIDTH 333 0
DWIDTH 2 0
BBX 1 1 0 0
BITMAP
80
ENDCHAR
STARTCHAR U+002F
ENCODING 47
SWIDTH 666 0
DWIDTH 4 0
BBX 3 6 0 0
BITMAP
20
20
40
40
80
80
ENDCHAR
STARTCHAR U+0030
ENCODING 48
SWIDTH 833 0
DWIDTH 5 0
BBX 4 6 0 0
BITMAP
60
90
B0
D0
90
60
ENDCHAR
STARTCHAR U+0031
ENCODING 49
SWIDTH 833 0
DWIDTH 5 0
BBX 3 6 1 0
BITMAP
40
C0
40
40
40
E0
ENDCHAR
STARTCHAR U+0032
ENCODING 50
SWIDTH 833 0
DWIDTH 5 0
BBX 4 6 0 0
BITMAP
60
90
10
20
40
F0
ENDCHAR
STARTCHAR U+0033
ENCODING 51
SWIDTH 833 0
DWIDTH 5 0
BBX 4 6 0 0
BITMAP
60
90
20
10
90
60
ENDCHAR
STARTCHAR U+0034
ENCODING 52
SWIDTH 833 0
DWIDTH 5 0
BBX 4 6 0 0
BITMAP
30
50
50
90
F0
10
ENDCHAR
STARTCHAR U+0035
ENCODING 53
SWIDTH 833 0
DWIDTH 5 0
BBX 4 6 0 0
BITMAP
F0
80
E0
10
10
E0
ENDCHAR
STARTCHAR U+0036
ENCODING 54
SWIDTH 833 0
DWIDTH 5 0
BBX 4 6 0 0
BITMAP
60
80
E0
90
90
60
ENDCHAR
STARTCHAR U+0037
ENCODING 55
SWIDTH 833 0
DWIDTH 5 0
BBX 4 6 0 0
BITMAP
F0
10
10
20
20
20
ENDCHAR
STARTCHAR U+0038
ENCODING 56
SWIDTH 833 0
DWIDTH 5 0
BBX 4 6 0 0
BITMAP
60
90
60
90
90
60
ENDCHAR
STARTCHAR U+0039
ENCODING 57
SWIDTH 833 0
DWIDTH 5 0
BBX 4 6 0 0
BITMAP
60
90
90
70
10
60
ENDCHAR
STARTCHAR U+003A
ENCODING 58
SWIDTH 333 0
DWIDTH 2 0
BBX 1 4 0 0
BITMAP
80
00
00
80
ENDCHAR
STARTCHAR U+003B
ENCODING 59
SWIDTH 500 0
DWIDTH 3 0
BBX 2 5 0 -1
BITMAP
40
00
00
40
80
ENDCHAR
STARTCHAR U+003C
ENCODING 60
SWIDTH 666 0
DWIDTH 4 0
BBX 3 5 0 0
BITMAP
20
40
80
40
20
ENDCHAR
STARTCHAR U+003D
ENCODING 61
SWIDTH 666 0
DWIDTH 4 0
BBX 3 3 0 1
BITMAP
E0
00
E0
ENDCHAR
STARTCHAR U+003E
ENCODING 62
SWIDTH 666 0
DWIDTH 4 0
BBX 3 5 0 0
BITMAP
80
40
20
40
80
ENDCHAR
STARTCHAR U+003F
ENCODING 63
SWIDTH 833 0
DWIDTH 5 0
BBX 4 6 0 0
BITMAP
60
90
20
40
00
40
ENDCHAR
STARTCHAR U+0040
ENCODING 64
SWIDTH 1000 0
DWIDTH 6 0
BBX 5 7 0 -1
BITMAP
70
88
98
A8
B8
80
78
ENDCHAR
STARTCHAR U+0041
ENCODING 65
SWIDTH 833 0
DWIDTH 5 0
BBX 4 6 0 0
BITMAP
60
90
90
F0
90
90
ENDCHAR
STARTCHAR U+0042
ENCODING 66
SWIDTH 833 0
DWIDTH 5 0
BBX 4 6 0 0
BITMAP
E0
90
E0
90
90
E0
ENDCHAR
STARTCHAR U+0043
ENCODING 67
SWIDTH 833 0
DWIDTH 5 0
BBX 4 6 0 0
BITMAP
60
90
80
80
90
60
ENDCHAR
STARTCHAR U+0044
ENCODING 68
SWIDTH 833 0
DWIDTH 5 0
BBX 4 6 0 0
BITMAP
E0
90
90
90
90
E0
ENDCHAR
STARTCHAR U+0045
ENCODING 69
SWIDTH 833 0
DWIDTH 5 0
BBX 4 6 0 0
BITMAP
F0
80
E0
80
80
F0
ENDCHAR
STARTCHAR U+0046
ENCODING 70
SWIDTH 833 0
DWIDTH 5 0
BBX 4 6 0 0
BITMAP
F0
80
E0
80
80
80
ENDCHAR
STARTCHAR U+0047
ENCODING 71
SWIDTH 833 0
DWIDTH 5 0
BBX 4 6 0 0
BITMAP
60
90
80
B0
90
70
ENDCHAR
STARTCHAR U+0048
ENCODING 72
SWIDTH 833 0
DWIDTH 5 0
BBX 4 6 0 0
BITMAP
90
90
F0
90
90
90
ENDCHAR
STARTCHAR U+0049
ENCODING 73
SWIDTH 666 0
DWIDTH 4 0
BBX 3 6 0 0
BITMAP
E0
40
40
40
40
E0
ENDCHAR
STARTCHAR U+004A
ENCODING 74
SWIDTH 833 0
DWIDTH 5 0
BBX 4 6 0 0
BITMAP
10
10
10
10
90
60
ENDCHAR
STARTCHAR U+004B
ENCODING 75
SWIDTH 833 0
DWIDTH 5 0
BBX 4 6 0 0
BITMAP
90
A0
C0
A0
90
90
ENDCHAR
STARTCHAR U+004C
ENCODING 76
SWIDTH 833 0
DWIDTH 5 0
BBX 4 6 0 0
BITMAP
80
80
80
80
80
F0
ENDCHAR
STARTCHAR U+004D
ENCODING 77
SWIDTH 1000 0
DWIDTH 6 0
BBX 5 6 0 0
BITMAP
88
D8
A8
A8
88
88
ENDCHAR
STARTCHAR U+004E
ENCODING 78
SWIDTH 833 0
DWIDTH 5 0
BBX 4 6 0 0
BITMAP
90
D0
B0
90
90
90
ENDCHAR
STARTCHAR U+004F
ENCODING 79
SWIDTH 833 0
DWIDTH 5 0
BBX 4 6 0 0
BITMAP
60
90
90
90
90
60
ENDCHAR
STARTCHAR U+0050
ENCODING 80
SWIDTH 833 0
DWIDTH 5 0
BBX 4 6 0 0
BITMAP
E0
90
90
E0
80
80
ENDCHAR
STARTCHAR U+0051
ENCODING 81
SWIDTH 833 0
DWIDTH 5 0
BBX 4 6 0 0
BITMAP
60
90
90
90
A0
50
ENDCHAR
STARTCHAR U+0052
ENCODING 82
SWIDTH 833 0
DWIDTH 5 0
BBX 4 6 0 0
BITMAP
E0
90
90
E0
A0
90
ENDCHAR
STARTCHAR U+0053
ENCODING 83
SWIDTH 833 0
DWIDTH 5 0
BBX 4 6 0 0
BITMAP
60
90
40
20
90
60
ENDCHAR
STARTCHAR U+0054
ENCODING 84
SWIDTH 1000 0
DWIDTH 6 0
BBX 5 6 0 0
BITMAP
F8
20
20
20
20
20
ENDCHAR
STARTCHAR U+0055
ENCODING 85
SWIDTH 833 0
DWIDTH 5 0
BBX 4 12 0 0
BITMAP
80
00
00
00
00
00
90
90
90
90
90
60
ENDCHAR
STARTCHAR U+0056
ENCODING 86
SWIDTH 1000 0
DWIDTH 6 0
BBX 5 6 0 0
BITMAP
88
88
50
50
20
20
ENDCHAR
STARTCHAR U+0057
ENCODING 87
SWIDTH 1000 0
DWIDTH 6 0
BBX 5 6 0 0
BITMAP
88
A8
A8
A8
50
50
ENDCHAR
STARTCHAR U+0058
ENCODING 88
SWIDTH 1000 0
DWIDTH 6 0
BBX 5 6 0 0
BITMAP
88
50
20
20
50
88
ENDCHAR
STARTCHAR U+0059
ENCODING 89
SWIDTH 1000 0
DWIDTH 6 0
BBX 5 6 0 0
BITMAP
88
88
50
20
20
20
ENDCHAR
STARTCHAR U+005A
ENCODING 90
SWIDTH 833 0
DWIDTH 5 0
BBX 4 6 0 0
BITMAP
F0
10
20
40
80
F0
ENDCHAR
STARTCHAR U+005B
ENCODING 91
SWIDTH 666 0
DWIDTH 4 0
BBX 3 6 0 0
BITMAP
E0
80
80
80
80
E0
ENDCHAR
STARTCHAR U+005C
ENCODING 92
SWIDTH 666 0
DWIDTH 4 0
BBX 3 6 0 0
BITMAP
80
80
40
40
20
20
ENDCHAR
STARTCHAR U+005D
ENCODING 93
SWIDTH 666 0
DWIDTH 4 0
BBX 3 6 0 0
BITMAP
E0
20
20
20
20
E0
ENDCHAR
STARTCHAR U+005E
ENCODING 94
SWIDTH 666 0
DWIDTH 4 0
BBX 3 2 0 4
BITMAP
40
A0
ENDCHAR
STARTCHAR U+005F
ENCODING 95
SWIDTH 666 0
DWIDTH 4 0
BBX 3 1 0 0
BITMAP
E0
ENDCHAR
STARTCHAR U+0060
ENCODING 96
SWIDTH 500 0
DWIDTH 3 0
BBX 2 2 0 4
BITMAP
80
40
ENDCHAR
STARTCHAR U+0061
ENCODING 97
SWIDTH 833 0
DWIDTH 5 0
BBX 4 5 0 0
BITMAP
60
10
70
90
70
ENDCHAR
STARTCHAR U+0062
ENCODING 98
SWIDTH 833 0
DWIDTH 5 0
BBX 4 6 0 0
BITMAP
80
80
E0
90
90
E0
ENDCHAR
STARTCHAR U+0063
ENCODING 99
SWIDTH 833 0
DWIDTH 5 0
BBX 4 5 0 0
BITMAP
60
90
80
90
60
ENDCHAR
STARTCHAR U+0064
ENCODING 100
SWIDTH 833 0
DWIDTH 5 0
BBX 4 6 0 0
BITMAP
10
10
70
90
90
70
ENDCHAR
STARTCHAR U+0065
ENCODING 101
SWIDTH 833 0
DWIDTH 5 0
BBX 4 5 0 0
BITMAP
60
90
F0
80
60
ENDCHAR
STARTCHAR U+0066
ENCODING 102
SWIDTH 833 0
DWIDTH 5 0
BBX 4 6 0 0
BITMAP
30
40
E0
40
40
40
ENDCHAR
STARTCHAR U+0067
ENCODING 103
SWIDTH 833 0
DWIDTH 5 0
BBX 4 6 0 -1
BITMAP
70
90
90
70
10
60
ENDCHAR
STARTCHAR U+0068
ENCODING 104
SWIDTH 833 0
DWIDTH 5 0
BBX 4 6 0 0
BITMAP
80
80
E0
90
90
90
ENDCHAR
STARTCHAR U+0069
ENCODING 105
SWIDTH 666 0
DWIDTH 4 0
BBX 3 7 0 0
BITMAP
40
00
C0
40
40
40
E0
ENDCHAR
STARTCHAR U+006A
ENCODING 106
SWIDTH 666 0
DWIDTH 4 0
BBX 3 8 0 -1
BITMAP
40
00
E0
20
20
20
20
C0
ENDCHAR
STARTCHAR U+006B
ENCODING 107
SWIDTH 833 0
DWIDTH 5 0
BBX 4 6 0 0
BITMAP
80
90
A0
C0
A0
90
ENDCHAR
STARTCHAR U+006C
ENCODING 108
SWIDTH 666 0
DWIDTH 4 0
BBX 3 6 0 0
BITMAP
C0
40
40
40
40
60
ENDCHAR
STARTCHAR U+006D
ENCODING 109
SWIDTH 1000 0
DWIDTH 6 0
BBX 5 5 0 0
BITMAP
D0
A8
A8
A8
A8
ENDCHAR
STARTCHAR U+006E
ENCODING 110
SWIDTH 833 0
DWIDTH 5 0
BBX 4 5 0 0
BITMAP
E0
90
90
90
90
ENDCHAR
STARTCHAR U+006F
ENCODING 111
SWIDTH 833 0
DWIDTH 5 0
BBX 4 5 0 0
BITMAP
60
90
90
90
60
ENDCHAR
STARTCHAR U+0070
ENCODING 112
SWIDTH 833 0
DWIDTH 5 0
BBX 4 6 0 -1
BITMAP
E0
90
90
E0
80
80
ENDCHAR
STARTCHAR U+0071
ENCODING 113
SWIDTH 833 0
DWIDTH 5 0
BBX 4 6 0 -1
BITMAP
70
90
90
70
10
10
ENDCHAR
STARTCHAR U+0072
ENCODING 114
SWIDTH 833 0
DWIDTH 5 0
BBX 4 5 0 0
BITMAP
B0
C0
80
80
80
ENDCHAR
STARTCHAR U+0073
ENCODING 115
SWIDTH 833 0
DWIDTH 5 0
BBX 4 5 0 0
BITMAP
70
80
60
10
E0
ENDCHAR
STARTCHAR U+0074
ENCODING 116
SWIDTH 666 0
DWIDTH 4 0
BBX 3 6 0 0
BITMAP
40
E0
40
40
40
20
ENDCHAR
STARTCHAR U+0075
ENCODING 117
SWIDTH 833 0
DWIDTH 5 0
BBX 4 5 0 0
BITMAP
90
90
90
90
70
ENDCHAR
STARTCHAR U+0076
ENCODING 118
SWIDTH 1000 0
DWIDTH 6 0
BBX 5 5 0 0
BITMAP
88
88
50
50
20
ENDCHAR
STARTCHAR U+0077
ENCODING 119
SWIDTH 1000 0
DWIDTH 6 0
BBX 5 5 0 0
BITMAP
A8
A8
A8
50
50
ENDCHAR
STARTCHAR U+0078
ENCODING 120
SWIDTH 1000 0
DWIDTH 6 0
BBX 6 12 0 0
BITMAP
0C
00
00
00
00
00
00
88
50
20
50
88
ENDCHAR
STARTCHAR U+0079
ENCODING 121
SWIDTH 1000 0
DWIDTH 6 0
BBX 5 6 0 -1
BITMAP
88
88
50
50
20
C0
ENDCHAR
STARTCHAR U+007A
ENCODING 122
SWIDTH 833 0
DWIDTH 5 0
BBX 4 5 0 0
BITMAP
F0
20
40
80
F0
ENDCHAR
STARTCHAR U+007B
ENCODING 123
SWIDTH 666 0
DWIDTH 4 0
BBX 3 6 0 0
BITMAP
20
40
40
C0
40
20
ENDCHAR
STARTCHAR U+007C
ENCODING 124
SWIDTH 333 0
DWIDTH 2 0
BBX 1 6 0 0
BITMAP
80
80
80
80
80
80
ENDCHAR
STARTCHAR U+007D
ENCODING 125
SWIDTH 666 0
DWIDTH 4 0
BBX 3 6 0 0
BITMAP
80
40
40
60
40
80
ENDCHAR
STARTCHAR U+007E
ENCODING 126
SWIDTH 1000 0
DWIDTH 6 0
BBX 6 11 0 1
BITMAP
7C
00
00
00
00
00
00
00
40
A8
10
ENDCHAR
STARTCHAR U+00A1
ENCODING 161
SWIDTH 333 0
DWIDTH 2 0
BBX 1 6 0 0
BITMAP
80
00
80
80
80
80
ENDCHAR
STARTCHAR U+00A2
ENCODING 162
SWIDTH 833 0
DWIDTH 5 0
BBX 4 6 0 0
BITMAP
20
70
80
80
70
20
ENDCHAR
STARTCHAR U+00A3
ENCODING 163
SWIDTH 833 0
DWIDTH 5 0
BBX 4 6 0 0
BITMAP
30
40
E0
40
80
F0
ENDCHAR
STARTCHAR U+00A4
ENCODING 164
SWIDTH 1000 0
DWIDTH 6 0
BBX 5 5 0 0
BITMAP
88
70
50
70
88
ENDCHAR
STARTCHAR U+00A5
ENCODING 165
SWIDTH 1000 0
DWIDTH 6 0
BBX 5 6 0 0
BITMAP
88
50
F8
20
F8
20
ENDCHAR
STARTCHAR U+00A6
ENCODING 166
SWIDTH 333 0
DWIDTH 2 0
BBX 1 6 0 0
BITMAP
80
80
00
00
80
80
ENDCHAR
STARTCHAR U+00A7
ENCODING 167
SWIDTH 666 0
DWIDTH 4 0
BBX 3 7 0 0
BITMAP
60
80
E0
A0
E0
20
C0
ENDCHAR
STARTCHAR U+00A8
ENCODING 168
SWIDTH 666 0
DWIDTH 4 0
BBX 3 1 0 6
BITMAP
A0
ENDCHAR
STARTCHAR U+00A9
ENCODING 169
SWIDTH 1166 0
DWIDTH 7 0
BBX 6 7 0 0
BITMAP
78
84
B4
A4
B4
84
78
ENDCHAR
STARTCHAR U+00AA
ENCODING 170
SWIDTH 666 0
DWIDTH 4 0
BBX 3 4 0 2
BITMAP
C0
60
A0
60
ENDCHAR
STARTCHAR U+00AB
ENCODING 171
SWIDTH 1000 0
DWIDTH 6 0
BBX 5 5 0 0
BITMAP
28
50
A0
50
28
ENDCHAR
STARTCHAR U+00AC
ENCODING 172
SWIDTH 666 0
DWIDTH 4 0
BBX 3 2 0 2
BITMAP
E0
20
ENDCHAR
STARTCHAR U+00AE
ENCODING 174
SWIDTH 1166 0
DWIDTH 7 0
BBX 6 7 0 0
BITMAP
78
84
B4
A4
94
84
78
ENDCHAR
STARTCHAR U+00AF
ENCODING 175
SWIDTH 833 0
DWIDTH 5 0
BBX 4 1 0 5
BITMAP
F0
ENDCHAR
STARTCHAR U+00B0
ENCODING 176
SWIDTH 666 0
DWIDTH 4 0
BBX 3 3 0 3
BITMAP
40
A0
40
ENDCHAR
STARTCHAR U+00B1
ENCODING 177
SWIDTH 666 0
DWIDTH 4 0
BBX 3 5 0 0
BITMAP
40
E0
40
00
E0
ENDCHAR
STARTCHAR U+00B2
ENCODING 178
SWIDTH 666 0
DWIDTH 4 0
BBX 3 4 0 2
BITMAP
C0
20
40
E0
ENDCHAR
STARTCHAR U+00B3
ENCODING 179
SWIDTH 666 0
DWIDTH 4 0
BBX 3 5 0 2
BITMAP
C0
20
40
20
C0
ENDCHAR
STARTCHAR U+00B4
ENCODING 180
SWIDTH 500 0
DWIDTH 3 0
BBX 2 2 0 4
BITMAP
40
80
ENDCHAR
STARTCHAR U+00B5
ENCODING 181
SWIDTH 833 0
DWIDTH 5 0
BBX 4 6 0 -1
BITMAP
90
90
90
90
E0
80
ENDCHAR
STARTCHAR U+00B6
ENCODING 182
SWIDTH 1000 0
DWIDTH 6 0
BBX 5 6 0 0
BITMAP
78
E8
E8
68
28
28
ENDCHAR
STARTCHAR U+00B7
ENCODING 183
SWIDTH 333 0
DWIDTH 2 0
BBX 1 1 0 2
BITMAP
80
ENDCHAR
STARTCHAR U+00B8
ENCODING 184
SWIDTH 500 0
DWIDTH 3 0
BBX 2 3 0 -1
BITMAP
80
40
80
ENDCHAR
STARTCHAR U+00B9
ENCODING 185
SWIDTH 666 0
DWIDTH 4 0
BBX 3 4 0 2
BITMAP
40
C0
40
E0
ENDCHAR
STARTCHAR U+00BA
ENCODING 186
SWIDTH 666 0
DWIDTH 4 0
BBX 3 4 0 2
BITMAP
40
A0
A0
40
ENDCHAR
STARTCHAR U+00BB
ENCODING 187
SWIDTH 1000 0
DWIDTH 6 0
BBX 5 5 0 0
BITMAP
A0
50
28
50
A0
ENDCHAR
STARTCHAR U+00BC
ENCODING 188
SWIDTH 1166 0
DWIDTH 7 0
BBX 6 7 0 0
BITMAP
40
D0
50
48
10
5C
48
ENDCHAR
STARTCHAR U+00BD
ENCODING 189
SWIDTH 1166 0
DWIDTH 7 0
BBX 6 7 0 0
BITMAP
40
D0
50
58
04
48
5C
ENDCHAR
STARTCHAR U+00BE
ENCODING 190
SWIDTH 1166 0
DWIDTH 7 0
BBX 6 7 0 0
BITMAP
C0
50
90
48
D0
1C
48
ENDCHAR
STARTCHAR U+00BF
ENCODING 191
SWIDTH 833 0
DWIDTH 5 0
BBX 4 6 0 0
BITMAP
20
00
20
40
90
60
ENDCHAR
STARTCHAR U+00C0
ENCODING 192
SWIDTH 833 0
DWIDTH 5 0
BBX 4 7 0 0
BITMAP
40
20
60
90
F0
90
90
ENDCHAR
STARTCHAR U+00C1
ENCODING 193
SWIDTH 833 0
DWIDTH 5 0
BBX 4 7 0 0
BITMAP
20
40
60
90
F0
90
90
ENDCHAR
STARTCHAR U+00C2
ENCODING 194
SWIDTH 833 0
DWIDTH 5 0
BBX 4 7 0 0
BITMAP
60
90
60
90
F0
90
90
ENDCHAR
STARTCHAR U+00C3
ENCODING 195
SWIDTH 833 0
DWIDTH 5 0
BBX 4 7 0 0
BITMAP
50
A0
60
90
F0
90
90
ENDCHAR
STARTCHAR U+00C4
ENCODING 196
SWIDTH 833 0
DWIDTH 5 0
BBX 4 7 0 0
BITMAP
A0
00
60
90
F0
90
90
ENDCHAR
STARTCHAR U+00C5
ENCODING 197
SWIDTH 833 0
DWIDTH 5 0
BBX 4 7 0 0
BITMAP
60
00
60
90
F0
90
90
ENDCHAR
STARTCHAR U+00C6
ENCODING 198
SWIDTH 1000 0
DWIDTH 6 0
BBX 5 6 0 0
BITMAP
78
A0
F0
A0
A0
B8
ENDCHAR
STARTCHAR U+00C7
ENCODING 199
SWIDTH 833 0
DWIDTH 5 0
BBX 4 7 0 -1
BITMAP
60
90
80
80
90
60
C0
ENDCHAR
STARTCHAR U+00C8
ENCODING 200
SWIDTH 833 0
DWIDTH 5 0
BBX 4 7 0 0
BITMAP
40
20
F0
80
E0
80
F0
ENDCHAR
STARTCHAR U+00C9
ENCODING 201
SWIDTH 833 0
DWIDTH 5 0
BBX 4 7 0 0
BITMAP
20
40
F0
80
E0
80
F0
ENDCHAR
STARTCHAR U+00CA
ENCODING 202
SWIDTH 833 0
DWIDTH 5 0
BBX 4 7 0 0
BITMAP
60
90
F0
80
E0
80
F0
ENDCHAR
STARTCHAR U+00CB
ENCODING 203
SWIDTH 833 0
DWIDTH 5 0
BBX 4 7 0 0
BITMAP
A0
00
F0
80
E0
80
F0
ENDCHAR
STARTCHAR U+00CC
ENCODING 204
SWIDTH 666 0
DWIDTH 4 0
BBX 3 7 0 0
BITMAP
40
20
E0
40
40
40
E0
ENDCHAR
STARTCHAR U+00CD
ENCODING 205
SWIDTH 666 0
DWIDTH 4 0
BBX 3 7 0 0
BITMAP
20
40
E0
40
40
40
E0
ENDCHAR
STARTCHAR U+00CE
ENCODING 206
SWIDTH 666 0
DWIDTH 4 0
BBX 3 7 0 0
BITMAP
40
A0
E0
40
40
40
E0
ENDCHAR
STARTCHAR U+00CF
ENCODING 207
SWIDTH 666 0
DWIDTH 4 0
BBX 3 7 0 0
BITMAP
A0
00
E0
40
40
40
E0
ENDCHAR
STARTCHAR U+00D0
ENCODING 208
SWIDTH 1000 0
DWIDTH 6 0
BBX 5 6 0 0
BITMAP
70
48
48
E8
48
70
ENDCHAR
STARTCHAR U+00D1
ENCODING 209
SWIDTH 833 0
DWIDTH 5 0
BBX 4 7 0 0
BITMAP
50
A0
90
D0
B0
90
90
ENDCHAR
STARTCHAR U+00D2
ENCODING 210
SWIDTH 833 0
DWIDTH 5 0
BBX 4 7 0 0
BITMAP
40
20
60
90
90
90
60
ENDCHAR
STARTCHAR U+00D3
ENCODING 211
SWIDTH 833 0
DWIDTH 5 0
BBX 4 7 0 0
BITMAP
20
40
60
90
90
90
60
ENDCHAR
STARTCHAR U+00D4
ENCODING 212
SWIDTH 833 0
DWIDTH 5 0
BBX 4 7 0 0
BITMAP
60
90
60
90
90
90
60
ENDCHAR
STARTCHAR U+00D5
ENCODING 213
SWIDTH 833 0
DWIDTH 5 0
BBX 4 7 0 0
BITMAP
50
A0
60
90
90
90
60
ENDCHAR
STARTCHAR U+00D6
ENCODING 214
SWIDTH 833 0
DWIDTH 5 0
BBX 4 7 0 0
BITMAP
A0
00
60
90
90
90
60
ENDCHAR
STARTCHAR U+00D7
ENCODING 215
SWIDTH 666 0
DWIDTH 4 0
BBX 3 3 0 1
BITMAP
A0
40
A0
ENDCHAR
STARTCHAR U+00D8
ENCODING 216
SWIDTH 1166 0
DWIDTH 7 0
BBX 6 6 0 0
BITMAP
34
48
58
68
48
B0
ENDCHAR
STARTCHAR U+00D9
ENCODING 217
SWIDTH 833 0
DWIDTH 5 0
BBX 4 7 0 0
BITMAP
40
20
90
90
90
90
60
ENDCHAR
STARTCHAR U+00DA
ENCODING 218
SWIDTH 833 0
DWIDTH 5 0
BBX 4 7 0 0
BITMAP
20
40
90
90
90
90
60
ENDCHAR
STARTCHAR U+00DB
ENCODING 219
SWIDTH 833 0
DWIDTH 5 0
BBX 4 7 0 0
BITMAP
20
50
00
90
90
90
60
ENDCHAR
STARTCHAR U+00DC
ENCODING 220
SWIDTH 833 0
DWIDTH 5 0
BBX 4 7 0 0
BITMAP
A0
00
90
90
90
90
60
ENDCHAR
STARTCHAR U+00DD
ENCODING 221
SWIDTH 1000 0
DWIDTH 6 0
BBX 5 7 0 0
BITMAP
10
20
88
50
20
20
20
ENDCHAR
STARTCHAR U+00DE
ENCODING 222
SWIDTH 833 0
DWIDTH 5 0
BBX 4 6 0 0
BITMAP
80
E0
90
90
E0
80
ENDCHAR
STARTCHAR U+00DF
ENCODING 223
SWIDTH 833 0
DWIDTH 5 0
BBX 4 6 0 0
BITMAP
60
90
A0
90
90
A0
ENDCHAR
STARTCHAR U+00E0
ENCODING 224
SWIDTH 833 0
DWIDTH 5 0
BBX 4 7 0 0
BITMAP
40
20
60
10
70
90
70
ENDCHAR
STARTCHAR U+00E1
ENCODING 225
SWIDTH 833 0
DWIDTH 5 0
BBX 4 7 0 0
BITMAP
20
40
60
10
70
90
70
ENDCHAR
STARTCHAR U+00E2
ENCODING 226
SWIDTH 833 0
DWIDTH 5 0
BBX 4 7 0 0
BITMAP
60
90
60
10
70
90
70
ENDCHAR
STARTCHAR U+00E3
ENCODING 227
SWIDTH 833 0
DWIDTH 5 0
BBX 4 7 0 0
BITMAP
50
A0
60
10
70
90
70
ENDCHAR
STARTCHAR U+00E4
ENCODING 228
SWIDTH 833 0
DWIDTH 5 0
BBX 4 7 0 0
BITMAP
A0
00
60
10
70
90
70
ENDCHAR
STARTCHAR U+00E5
ENCODING 229
SWIDTH 833 0
DWIDTH 5 0
BBX 4 7 0 0
BITMAP
60
00
60
10
70
90
70
ENDCHAR
STARTCHAR U+00E6
ENCODING 230
SWIDTH 1166 0
DWIDTH 7 0
BBX 6 5 0 0
BITMAP
58
34
78
B0
68
ENDCHAR
STARTCHAR U+00E7
ENCODING 231
SWIDTH 833 0
DWIDTH 5 0
BBX 4 6 0 -1
BITMAP
60
90
80
90
60
C0
ENDCHAR
STARTCHAR U+00E8
ENCODING 232
SWIDTH 833 0
DWIDTH 5 0
BBX 4 7 0 0
BITMAP
40
20
60
90
F0
80
60
ENDCHAR
STARTCHAR U+00E9
ENCODING 233
SWIDTH 833 0
DWIDTH 5 0
BBX 4 7 0 0
BITMAP
20
40
60
90
F0
80
60
ENDCHAR
STARTCHAR U+00EA
ENCODING 234
SWIDTH 833 0
DWIDTH 5 0
BBX 4 7 0 0
BITMAP
60
90
60
90
F0
80
60
ENDCHAR
STARTCHAR U+00EB
ENCODING 235
SWIDTH 833 0
DWIDTH 5 0
BBX 4 7 0 0
BITMAP
A0
00
60
90
F0
80
60
ENDCHAR
STARTCHAR U+00EC
ENCODING 236
SWIDTH 666 0
DWIDTH 4 0
BBX 3 7 0 0
BITMAP
80
40
00
C0
40
40
E0
ENDCHAR
STARTCHAR U+00ED
ENCODING 237
SWIDTH 666 0
DWIDTH 4 0
BBX 3 7 0 0
BITMAP
40
80
00
C0
40
40
E0
ENDCHAR
STARTCHAR U+00EE
ENCODING 238
SWIDTH 666 0
DWIDTH 4 0
BBX 3 7 0 0
BITMAP
40
A0
00
C0
40
40
E0
ENDCHAR
STARTCHAR U+00EF
ENCODING 239
SWIDTH 666 0
DWIDTH 4 0
BBX 3 7 0 0
BITMAP
A0
00
C0
40
40
40
E0
ENDCHAR
STARTCHAR U+00F0
ENCODING 240
SWIDTH 833 0
DWIDTH 5 0
BBX 4 6 0 0
BITMAP
60
30
70
90
90
70
ENDCHAR
STARTCHAR U+00F1
ENCODING 241
SWIDTH 833 0
DWIDTH 5 0
BBX 4 7 0 0
BITMAP
50
A0
E0
90
90
90
90
ENDCHAR
STARTCHAR U+00F2
ENCODING 242
SWIDTH 833 0
DWIDTH 5 0
BBX 4 7 0 0
BITMAP
40
20
60
90
90
90
60
ENDCHAR
STARTCHAR U+00F3
ENCODING 243
SWIDTH 833 0
DWIDTH 5 0
BBX 4 7 0 0
BITMAP
20
40
60
90
90
90
60
ENDCHAR
STARTCHAR U+00F4
ENCODING 244
SWIDTH 833 0
DWIDTH 5 0
BBX 4 7 0 0
BITMAP
60
90
60
90
90
90
60
ENDCHAR
STARTCHAR U+00F5
ENCODING 245
SWIDTH 833 0
DWIDTH 5 0
BBX 4 7 0 0
BITMAP
50
A0
60
90
90
90
60
ENDCHAR
STARTCHAR U+00F6
ENCODING 246
SWIDTH 833 0
DWIDTH 5 0
BBX 4 7 0 0
BITMAP
A0
00
60
90
90
90
60
ENDCHAR
STARTCHAR U+00F7
ENCODING 247
SWIDTH 1000 0
DWIDTH 6 0
BBX 5 5 0 0
BITMAP
20
00
F8
00
20
ENDCHAR
STARTCHAR U+00F8
ENCODING 248
SWIDTH 1166 0
DWIDTH 7 0
BBX 6 6 0 0
BITMAP
34
48
58
68
48
B0
ENDCHAR
STARTCHAR U+00F9
ENCODING 249
SWIDTH 833 0
DWIDTH 5 0
BBX 4 7 0 0
BITMAP
40
20
90
90
90
90
70
ENDCHAR
STARTCHAR U+00FA
ENCODING 250
SWIDTH 833 0
DWIDTH 5 0
BBX 4 7 0 0
BITMAP
20
40
90
90
90
90
70
ENDCHAR
STARTCHAR U+00FB
ENCODING 251
SWIDTH 833 0
DWIDTH 5 0
BBX 4 7 0 0
BITMAP
20
50
00
90
90
90
70
ENDCHAR
STARTCHAR U+00FC
ENCODING 252
SWIDTH 833 0
DWIDTH 5 0
BBX 4 7 0 0
BITMAP
A0
00
90
90
90
90
70
ENDCHAR
STARTCHAR U+00FD
ENCODING 253
SWIDTH 1000 0
DWIDTH 6 0
BBX 5 8 0 -1
BITMAP
10
20
88
88
50
50
20
C0
ENDCHAR
STARTCHAR U+00FE
ENCODING 254
SWIDTH 833 0
DWIDTH 5 0
BBX 4 7 0 -1
BITMAP
80
E0
90
90
90
E0
80
ENDCHAR
STARTCHAR U+00FF
ENCODING 255
SWIDTH 1000 0
DWIDTH 6 0
BBX 5 8 0 -1
BITMAP
50
00
88
88
50
50
20
C0
ENDCHAR
STARTCHAR U+0100
ENCODING 256
SWIDTH 833 0
DWIDTH 5 0
BBX 4 7 0 0
BITMAP
E0
00
60
90
F0
90
90
ENDCHAR
STARTCHAR U+0101
ENCODING 257
SWIDTH 833 0
DWIDTH 5 0
BBX 4 7 0 0
BITMAP
E0
00
60
10
70
90
70
ENDCHAR
STARTCHAR U+0102
ENCODING 258
SWIDTH 833 0
DWIDTH 5 0
BBX 4 7 0 0
BITMAP
90
60
60
90
F0
90
90
ENDCHAR
STARTCHAR U+0103
ENCODING 259
SWIDTH 833 0
DWIDTH 5 0
BBX 4 7 0 0
BITMAP
90
60
60
10
70
90
70
ENDCHAR
STARTCHAR U+0104
ENCODING 260
SWIDTH 1000 0
DWIDTH 6 0
BBX 5 7 0 -1
BITMAP
60
90
90
F0
90
90
08
ENDCHAR
STARTCHAR U+0105
ENCODING 261
SWIDTH 1000 0
DWIDTH 6 0
BBX 5 6 0 -1
BITMAP
60
10
70
90
70
08
ENDCHAR
STARTCHAR U+0106
ENCODING 262
SWIDTH 833 0
DWIDTH 5 0
BBX 4 7 0 0
BITMAP
20
40
60
90
80
90
60
ENDCHAR
STARTCHAR U+0107
ENCODING 263
SWIDTH 833 0
DWIDTH 5 0
BBX 4 7 0 0
BITMAP
20
40
60
90
80
90
60
ENDCHAR
STARTCHAR U+0108
ENCODING 264
SWIDTH 833 0
DWIDTH 5 0
BBX 4 7 0 0
BITMAP
60
90
60
90
80
90
60
ENDCHAR
STARTCHAR U+0109
ENCODING 265
SWIDTH 833 0
DWIDTH 5 0
BBX 4 7 0 0
BITMAP
60
90
60
90
80
90
60
ENDCHAR
STARTCHAR U+010A
ENCODING 266
SWIDTH 833 0
DWIDTH 5 0
BBX 4 7 0 0
BITMAP
40
00
60
90
80
90
60
ENDCHAR
STARTCHAR U+010B
ENCODING 267
SWIDTH 833 0
DWIDTH 5 0
BBX 4 7 0 0
BITMAP
40
00
60
90
80
90
60
ENDCHAR
STARTCHAR U+010C
ENCODING 268
SWIDTH 833 0
DWIDTH 5 0
BBX 4 7 0 0
BITMAP
50
20
60
90
80
90
60
ENDCHAR
STARTCHAR U+010D
ENCODING 269
SWIDTH 833 0
DWIDTH 5 0
BBX 4 7 0 0
BITMAP
50
20
60
90
80
90
60
ENDCHAR
STARTCHAR U+010E
ENCODING 270
SWIDTH 833 0
DWIDTH 5 0
BBX 4 7 0 0
BITMAP
50
20
E0
90
90
90
E0
ENDCHAR
STARTCHAR U+010F
ENCODING 271
SWIDTH 1166 0
DWIDTH 7 0
BBX 6 6 0 0
BITMAP
14
14
70
90
90
70
ENDCHAR
STARTCHAR U+0110
ENCODING 272
SWIDTH 1000 0
DWIDTH 6 0
BBX 5 6 0 0
BITMAP
70
48
48
E8
48
70
ENDCHAR
STARTCHAR U+0111
ENCODING 273
SWIDTH 833 0
DWIDTH 5 0
BBX 5 6 0 0
BITMAP
10
38
70
90
90
70
ENDCHAR
STARTCHAR U+0112
ENCODING 274
SWIDTH 833 0
DWIDTH 5 0
BBX 4 7 0 0
BITMAP
E0
00
F0
80
E0
80
F0
ENDCHAR
STARTCHAR U+0113
ENCODING 275
SWIDTH 833 0
DWIDTH 5 0
BBX 4 7 0 0
BITMAP
E0
00
60
90
F0
80
60
ENDCHAR
STARTCHAR U+0114
ENCODING 276
SWIDTH 833 0
DWIDTH 5 0
BBX 4 7 0 0
BITMAP
90
60
F0
80
E0
80
F0
ENDCHAR
STARTCHAR U+0115
ENCODING 277
SWIDTH 833 0
DWIDTH 5 0
BBX 4 7 0 0
BITMAP
90
60
60
90
F0
80
60
ENDCHAR
STARTCHAR U+0116
ENCODING 278
SWIDTH 833 0
DWIDTH 5 0
BBX 4 7 0 0
BITMAP
40
00
F0
80
E0
80
F0
ENDCHAR
STARTCHAR U+0117
ENCODING 279
SWIDTH 833 0
DWIDTH 5 0
BBX 4 7 0 0
BITMAP
40
00
60
90
F0
80
60
ENDCHAR
STARTCHAR U+0118
ENCODING 280
SWIDTH 1000 0
DWIDTH 6 0
BBX 5 7 0 -1
BITMAP
F0
80
E0
80
80
F0
08
ENDCHAR
STARTCHAR U+0119
ENCODING 281
SWIDTH 833 0
DWIDTH 5 0
BBX 4 6 0 -1
BITMAP
60
90
F0
80
60
10
ENDCHAR
STARTCHAR U+011A
ENCODING 282
SWIDTH 833 0
DWIDTH 5 0
BBX 4 7 0 0
BITMAP
50
20
F0
80
E0
80
F0
ENDCHAR
STARTCHAR U+011B
ENCODING 283
SWIDTH 833 0
DWIDTH 5 0
BBX 4 7 0 0
BITMAP
50
20
60
90
F0
80
60
ENDCHAR
STARTCHAR U+011C
ENCODING 284
SWIDTH 833 0
DWIDTH 5 0
BBX 4 7 0 0
BITMAP
60
90
70
80
B0
90
70
ENDCHAR
STARTCHAR U+011D
ENCODING 285
SWIDTH 833 0
DWIDTH 5 0
BBX 4 8 0 -1
BITMAP
60
90
70
90
90
70
10
60
ENDCHAR
STARTCHAR U+011E
ENCODING 286
SWIDTH 833 0
DWIDTH 5 0
BBX 4 7 0 0
BITMAP
90
60
70
80
B0
90
70
ENDCHAR
STARTCHAR U+011F
ENCODING 287
SWIDTH 833 0
DWIDTH 5 0
BBX 4 8 0 -1
BITMAP
90
60
70
90
90
70
10
60
ENDCHAR
STARTCHAR U+0120
ENCODING 288
SWIDTH 833 0
DWIDTH 5 0
BBX 4 7 0 0
BITMAP
20
00
70
80
B0
90
70
ENDCHAR
STARTCHAR U+0121
ENCODING 289
SWIDTH 833 0
DWIDTH 5 0
BBX 4 8 0 -1
BITMAP
20
00
70
90
90
70
10
60
ENDCHAR
STARTCHAR U+0122
ENCODING 290
SWIDTH 833 0
DWIDTH 5 0
BBX 4 7 0 -1
BITMAP
60
90
80
B0
90
70
20
ENDCHAR
STARTCHAR U+0123
ENCODING 291
SWIDTH 833 0
DWIDTH 5 0
BBX 4 8 0 -1
BITMAP
20
00
70
90
90
70
10
60
ENDCHAR
STARTCHAR U+0124
ENCODING 292
SWIDTH 833 0
DWIDTH 5 0
BBX 4 7 0 0
BITMAP
60
90
00
90
F0
90
90
ENDCHAR
STARTCHAR U+0125
ENCODING 293
SWIDTH 1000 0
DWIDTH 6 0
BBX 5 7 0 0
BITMAP
40
A0
40
70
48
48
48
ENDCHAR
STARTCHAR U+0126
ENCODING 294
SWIDTH 1166 0
DWIDTH 7 0
BBX 6 7 0 0
BITMAP
48
FC
48
78
48
48
48
ENDCHAR
STARTCHAR U+0127
ENCODING 295
SWIDTH 1000 0
DWIDTH 6 0
BBX 5 7 0 0
BITMAP
40
F0
40
70
48
48
48
ENDCHAR
STARTCHAR U+0128
ENCODING 296
SWIDTH 666 0
DWIDTH 4 0
BBX 4 7 0 0
BITMAP
50
A0
E0
40
40
40
E0
ENDCHAR
STARTCHAR U+0129
ENCODING 297
SWIDTH 833 0
DWIDTH 5 0
BBX 4 7 0 0
BITMAP
50
A0
60
20
20
20
70
ENDCHAR
STARTCHAR U+012A
ENCODING 298
SWIDTH 666 0
DWIDTH 4 0
BBX 3 7 0 0
BITMAP
E0
00
E0
40
40
40
E0
ENDCHAR
STARTCHAR U+012B
ENCODING 299
SWIDTH 666 0
DWIDTH 4 0
BBX 3 7 0 0
BITMAP
E0
00
C0
40
40
40
E0
ENDCHAR
STARTCHAR U+012C
ENCODING 300
SWIDTH 833 0
DWIDTH 5 0
BBX 4 7 0 0
BITMAP
90
60
70
20
20
20
70
ENDCHAR
STARTCHAR U+012D
ENCODING 301
SWIDTH 833 0
DWIDTH 5 0
BBX 4 7 0 0
BITMAP
90
60
60
20
20
20
70
ENDCHAR
STARTCHAR U+012E
ENCODING 302
SWIDTH 666 0
DWIDTH 4 0
BBX 3 7 0 -1
BITMAP
E0
40
40
40
40
E0
40
ENDCHAR
STARTCHAR U+012F
ENCODING 303
SWIDTH 666 0
DWIDTH 4 0
BBX 3 8 0 -1
BITMAP
40
00
C0
40
40
40
E0
40
ENDCHAR
STARTCHAR U+0130
ENCODING 304
SWIDTH 666 0
DWIDTH 4 0
BBX 3 7 0 0
BITMAP
40
00
E0
40
40
40
E0
ENDCHAR
STARTCHAR U+0131
ENCODING 305
SWIDTH 666 0
DWIDTH 4 0
BBX 3 5 0 0
BITMAP
C0
40
40
40
E0
ENDCHAR
STARTCHAR U+0132
ENCODING 306
SWIDTH 833 0
DWIDTH 5 0
BBX 4 7 0 -1
BITMAP
90
90
90
90
90
90
20
ENDCHAR
STARTCHAR U+0133
ENCODING 307
SWIDTH 833 0
DWIDTH 5 0
BBX 4 8 0 -1
BITMAP
90
00
90
90
90
90
90
20
ENDCHAR
STARTCHAR U+0134
ENCODING 308
SWIDTH 1000 0
DWIDTH 6 0
BBX 5 7 0 0
BITMAP
10
28
10
10
10
90
60
ENDCHAR
STARTCHAR U+0135
ENCODING 309
SWIDTH 666 0
DWIDTH 4 0
BBX 3 8 0 -1
BITMAP
40
A0
E0
20
20
20
20
C0
ENDCHAR
STARTCHAR U+0136
ENCODING 310
SWIDTH 833 0
DWIDTH 5 0
BBX 4 7 0 -1
BITMAP
90
A0
C0
A0
90
90
20
ENDCHAR
STARTCHAR U+0137
ENCODING 311
SWIDTH 833 0
DWIDTH 5 0
BBX 4 7 0 -1
BITMAP
80
90
A0
C0
A0
90
40
ENDCHAR
STARTCHAR U+0138
ENCODING 312
SWIDTH 833 0
DWIDTH 5 0
BBX 4 5 0 0
BITMAP
90
A0
C0
A0
90
ENDCHAR
STARTCHAR U+0139
ENCODING 313
SWIDTH 833 0
DWIDTH 5 0
BBX 4 7 0 0
BITMAP
20
40
80
80
80
80
F0
ENDCHAR
STARTCHAR U+013A
ENCODING 314
SWIDTH 666 0
DWIDTH 4 0
BBX 3 7 0 0
BITMAP
20
40
C0
40
40
40
60
ENDCHAR
STARTCHAR U+013B
ENCODING 315
SWIDTH 833 0
DWIDTH 5 0
BBX 4 7 0 -1
BITMAP
80
80
80
80
80
F0
20
ENDCHAR
STARTCHAR U+013C
ENCODING 316
SWIDTH 666 0
DWIDTH 4 0
BBX 3 7 0 -1
BITMAP
C0
40
40
40
40
20
40
ENDCHAR
STARTCHAR U+013D
ENCODING 317
SWIDTH 833 0
DWIDTH 5 0
BBX 4 6 0 0
BITMAP
90
90
80
80
80
F0
ENDCHAR
STARTCHAR U+013E
ENCODING 318
SWIDTH 833 0
DWIDTH 5 0
BBX 4 6 0 0
BITMAP
D0
50
40
40
40
60
ENDCHAR
STARTCHAR U+013F
ENCODING 319
SWIDTH 833 0
DWIDTH 5 0
BBX 4 6 0 0
BITMAP
80
80
A0
80
80
F0
ENDCHAR
STARTCHAR U+0140
ENCODING 320
SWIDTH 833 0
DWIDTH 5 0
BBX 4 6 0 0
BITMAP
C0
40
50
40
40
60
ENDCHAR
STARTCHAR U+0141
ENCODING 321
SWIDTH 1000 0
DWIDTH 6 0
BBX 5 6 0 0
BITMAP
40
40
60
C0
40
78
ENDCHAR
STARTCHAR U+0142
ENCODING 322
SWIDTH 666 0
DWIDTH 4 0
BBX 3 6 0 0
BITMAP
C0
40
60
C0
40
60
ENDCHAR
STARTCHAR U+0143
ENCODING 323
SWIDTH 833 0
DWIDTH 5 0
BBX 4 7 0 0
BITMAP
20
40
90
D0
B0
90
90
ENDCHAR
STARTCHAR U+0144
ENCODING 324
SWIDTH 833 0
DWIDTH 5 0
BBX 4 7 0 0
BITMAP
20
40
E0
90
90
90
90
ENDCHAR
STARTCHAR U+0145
ENCODING 325
SWIDTH 833 0
DWIDTH 5 0
BBX 4 7 0 -1
BITMAP
90
D0
B0
90
90
90
20
ENDCHAR
STARTCHAR U+0146
ENCODING 326
SWIDTH 833 0
DWIDTH 5 0
BBX 4 6 0 -1
BITMAP
E0
90
90
90
90
20
ENDCHAR
STARTCHAR U+0147
ENCODING 327
SWIDTH 833 0
DWIDTH 5 0
BBX 4 7 0 0
BITMAP
50
20
90
D0
B0
90
90
ENDCHAR
STARTCHAR U+0148
ENCODING 328
SWIDTH 833 0
DWIDTH 5 0
BBX 4 7 0 0
BITMAP
50
20
E0
90
90
90
90
ENDCHAR
STARTCHAR U+0149
ENCODING 329
SWIDTH 1000 0
DWIDTH 6 0
BBX 5 7 0 0
BITMAP
40
80
70
48
48
48
48
ENDCHAR
STARTCHAR U+014A
ENCODING 330
SWIDTH 833 0
DWIDTH 5 0
BBX 4 7 0 -1
BITMAP
90
D0
B0
90
90
90
20
ENDCHAR
STARTCHAR U+014B
ENCODING 331
SWIDTH 833 0
DWIDTH 5 0
BBX 4 6 0 -1
BITMAP
E0
90
90
90
90
20
ENDCHAR
STARTCHAR U+014C
ENCODING 332
SWIDTH 833 0
DWIDTH 5 0
BBX 4 7 0 0
BITMAP
E0
00
60
90
90
90
60
ENDCHAR
STARTCHAR U+014D
ENCODING 333
SWIDTH 833 0
DWIDTH 5 0
BBX 4 7 0 0
BITMAP
E0
00
60
90
90
90
60
ENDCHAR
STARTCHAR U+014E
ENCODING 334
SWIDTH 833 0
DWIDTH 5 0
BBX 4 7 0 0
BITMAP
90
60
60
90
90
90
60
ENDCHAR
STARTCHAR U+014F
ENCODING 335
SWIDTH 833 0
DWIDTH 5 0
BBX 4 7 0 0
BITMAP
90
60
60
90
90
90
60
ENDCHAR
STARTCHAR U+0150
ENCODING 336
SWIDTH 833 0
DWIDTH 5 0
BBX 4 7 0 0
BITMAP
50
A0
60
90
90
90
60
ENDCHAR
STARTCHAR U+0151
ENCODING 337
SWIDTH 833 0
DWIDTH 5 0
BBX 4 7 0 0
BITMAP
50
A0
60
90
90
90
60
ENDCHAR
STARTCHAR U+0152
ENCODING 338
SWIDTH 1000 0
DWIDTH 6 0
BBX 5 6 0 0
BITMAP
78
A0
B0
A0
A0
78
ENDCHAR
STARTCHAR U+0153
ENCODING 339
SWIDTH 1000 0
DWIDTH 6 0
BBX 5 5 0 0
BITMAP
78
A0
B0
A0
78
ENDCHAR
STARTCHAR U+0154
ENCODING 340
SWIDTH 833 0
DWIDTH 5 0
BBX 4 7 0 0
BITMAP
20
40
E0
90
E0
A0
90
ENDCHAR
STARTCHAR U+0155
ENCODING 341
SWIDTH 833 0
DWIDTH 5 0
BBX 4 7 0 0
BITMAP
20
40
B0
C0
80
80
80
ENDCHAR
STARTCHAR U+0156
ENCODING 342
SWIDTH 833 0
DWIDTH 5 0
BBX 4 7 0 -1
BITMAP
E0
90
90
E0
A0
90
40
ENDCHAR
STARTCHAR U+0157
ENCODING 343
SWIDTH 833 0
DWIDTH 5 0
BBX 4 6 0 -1
BITMAP
B0
C0
80
80
40
80
ENDCHAR
STARTCHAR U+0158
ENCODING 344
SWIDTH 833 0
DWIDTH 5 0
BBX 4 7 0 0
BITMAP
50
20
E0
90
E0
A0
90
ENDCHAR
STARTCHAR U+0159
ENCODING 345
SWIDTH 833 0
DWIDTH 5 0
BBX 4 7 0 0
BITMAP
50
20
B0
C0
80
80
80
ENDCHAR
STARTCHAR U+015A
ENCODING 346
SWIDTH 833 0
DWIDTH 5 0
BBX 4 7 0 0
BITMAP
20
40
70
80
60
10
E0
ENDCHAR
STARTCHAR U+015B
ENCODING 347
SWIDTH 833 0
DWIDTH 5 0
BBX 4 7 0 0
BITMAP
20
40
70
80
60
10
E0
ENDCHAR
STARTCHAR U+015C
ENCODING 348
SWIDTH 833 0
DWIDTH 5 0
BBX 4 7 0 0
BITMAP
60
90
70
80
60
10
E0
ENDCHAR
STARTCHAR U+015D
ENCODING 349
SWIDTH 833 0
DWIDTH 5 0
BBX 4 7 0 0
BITMAP
60
90
70
80
60
10
E0
ENDCHAR
STARTCHAR U+015E
ENCODING 350
SWIDTH 833 0
DWIDTH 5 0
BBX 4 7 0 -1
BITMAP
60
90
40
20
90
60
40
ENDCHAR
STARTCHAR U+015F
ENCODING 351
SWIDTH 833 0
DWIDTH 5 0
BBX 4 6 0 -1
BITMAP
70
80
60
10
E0
40
ENDCHAR
STARTCHAR U+0160
ENCODING 352
SWIDTH 833 0
DWIDTH 5 0
BBX 4 7 0 0
BITMAP
50
20
70
80
60
10
E0
ENDCHAR
STARTCHAR U+0161
ENCODING 353
SWIDTH 833 0
DWIDTH 5 0
BBX 4 7 0 0
BITMAP
50
20
70
80
60
10
E0
ENDCHAR
STARTCHAR U+0162
ENCODING 354
SWIDTH 1000 0
DWIDTH 6 0
BBX 5 7 0 -1
BITMAP
F8
20
20
20
20
10
20
ENDCHAR
STARTCHAR U+0163
ENCODING 355
SWIDTH 666 0
DWIDTH 4 0
BBX 3 7 0 -1
BITMAP
40
E0
40
40
40
20
40
ENDCHAR
STARTCHAR U+0164
ENCODING 356
SWIDTH 1000 0
DWIDTH 6 0
BBX 5 7 0 0
BITMAP
50
20
F8
20
20
20
20
ENDCHAR
STARTCHAR U+0165
ENCODING 357
SWIDTH 1000 0
DWIDTH 6 0
BBX 5 6 0 0
BITMAP
48
E8
40
40
40
20
ENDCHAR
STARTCHAR U+0166
ENCODING 358
SWIDTH 1000 0
DWIDTH 6 0
BBX 5 6 0 0
BITMAP
F8
20
20
70
20
20
ENDCHAR
STARTCHAR U+0167
ENCODING 359
SWIDTH 666 0
DWIDTH 4 0
BBX 3 6 0 0
BITMAP
40
E0
40
E0
40
20
ENDCHAR
STARTCHAR U+0168
ENCODING 360
SWIDTH 833 0
DWIDTH 5 0
BBX 4 7 0 0
BITMAP
50
A0
90
90
90
90
60
ENDCHAR
STARTCHAR U+0169
ENCODING 361
SWIDTH 833 0
DWIDTH 5 0
BBX 4 7 0 0
BITMAP
50
A0
90
90
90
90
70
ENDCHAR
STARTCHAR U+016A
ENCODING 362
SWIDTH 833 0
DWIDTH 5 0
BBX 4 7 0 0
BITMAP
E0
00
90
90
90
90
60
ENDCHAR
STARTCHAR U+016B
ENCODING 363
SWIDTH 833 0
DWIDTH 5 0
BBX 4 7 0 0
BITMAP
E0
00
90
90
90
90
70
ENDCHAR
STARTCHAR U+016C
ENCODING 364
SWIDTH 833 0
DWIDTH 5 0
BBX 4 7 0 0
BITMAP
90
60
90
90
90
90
60
ENDCHAR
STARTCHAR U+016D
ENCODING 365
SWIDTH 833 0
DWIDTH 5 0
BBX 4 7 0 0
BITMAP
90
60
90
90
90
90
70
ENDCHAR
STARTCHAR U+016E
ENCODING 366
SWIDTH 833 0
DWIDTH 5 0
BBX 4 7 0 0
BITMAP
60
00
90
90
90
90
60
ENDCHAR
STARTCHAR U+016F
ENCODING 367
SWIDTH 833 0
DWIDTH 5 0
BBX 4 7 0 0
BITMAP
60
00
90
90
90
90
70
ENDCHAR
STARTCHAR U+0170
ENCODING 368
SWIDTH 833 0
DWIDTH 5 0
BBX 4 7 0 0
BITMAP
50
A0
90
90
90
90
60
ENDCHAR
STARTCHAR U+0171
ENCODING 369
SWIDTH 833 0
DWIDTH 5 0
BBX 4 7 0 0
BITMAP
50
A0
90
90
90
90
70
ENDCHAR
STARTCHAR U+0172
ENCODING 370
SWIDTH 833 0
DWIDTH 5 0
BBX 4 6 0 -1
BITMAP
90
90
90
90
60
10
ENDCHAR
STARTCHAR U+0173
ENCODING 371
SWIDTH 1000 0
DWIDTH 6 0
BBX 5 6 0 -1
BITMAP
90
90
90
90
70
08
ENDCHAR
STARTCHAR U+0174
ENCODING 372
SWIDTH 1000 0
DWIDTH 6 0
BBX 5 7 0 0
BITMAP
20
50
88
A8
A8
50
50
ENDCHAR
STARTCHAR U+0175
ENCODING 373
SWIDTH 1000 0
DWIDTH 6 0
BBX 5 7 0 0
BITMAP
20
50
88
A8
A8
50
50
ENDCHAR
STARTCHAR U+0176
ENCODING 374
SWIDTH 1000 0
DWIDTH 6 0
BBX 5 7 0 0
BITMAP
20
50
88
50
20
20
20
ENDCHAR
STARTCHAR U+0177
ENCODING 375
SWIDTH 1000 0
DWIDTH 6 0
BBX 5 8 0 -1
BITMAP
20
50
88
88
50
50
20
C0
ENDCHAR
STARTCHAR U+0178
ENCODING 376
SWIDTH 1000 0
DWIDTH 6 0
BBX 5 7 0 0
BITMAP
50
00
88
50
20
20
20
ENDCHAR
STARTCHAR U+0179
ENCODING 377
SWIDTH 833 0
DWIDTH 5 0
BBX 4 7 0 0
BITMAP
20
40
F0
20
40
80
F0
ENDCHAR
STARTCHAR U+017A
ENCODING 378
SWIDTH 833 0
DWIDTH 5 0
BBX 4 7 0 0
BITMAP
20
40
F0
20
40
80
F0
ENDCHAR
STARTCHAR U+017B
ENCODING 379
SWIDTH 833 0
DWIDTH 5 0
BBX 4 7 0 0
BITMAP
20
00
F0
20
40
80
F0
ENDCHAR
STARTCHAR U+017C
ENCODING 380
SWIDTH 833 0
DWIDTH 5 0
BBX 4 7 0 0
BITMAP
20
00
F0
20
40
80
F0
ENDCHAR
STARTCHAR U+017D
ENCODING 381
SWIDTH 833 0
DWIDTH 5 0
BBX 4 7 0 0
BITMAP
50
20
F0
20
40
80
F0
ENDCHAR
STARTCHAR U+017E
ENCODING 382
SWIDTH 833 0
DWIDTH 5 0
BBX 4 7 0 0
BITMAP
50
20
F0
20
40
80
F0
ENDCHAR
STARTCHAR U+017F
ENCODING 383
SWIDTH 666 0
DWIDTH 4 0
BBX 3 5 0 0
BITMAP
60
80
80
80
80
ENDCHAR
STARTCHAR U+2219
ENCODING 8729
SWIDTH 333 0
DWIDTH 2 0
BBX 1 2 0 2
BITMAP
80
80
ENDCHAR
STARTCHAR U+2310
ENCODING 8976
SWIDTH 666 0
DWIDTH 4 0
BBX 3 2 0 2
BITMAP
E0
80
ENDCHAR
ENDFONT
